<svg width="733" height="362" viewBox="0 0 733 362" fill="none" xmlns="http://www.w3.org/2000/svg">
<rect width="733" height="362" rx="30" fill="#F5F5F5"/>
<path opacity="0.7" d="M596.577 144.718V212.816" stroke="#A64CED" stroke-width="163.436" stroke-linecap="round"/>
<path d="M621.773 132.46C619.73 140.632 606.11 150.847 595.896 150.847" stroke="black" stroke-width="2.72393" stroke-linecap="round" stroke-linejoin="round"/>
<path d="M645.237 178.086C642.74 187.62 635.022 203.827 624.126 192.386C610.507 178.086 596.206 156.975 581.906 155.613C567.605 154.252 559.433 159.018 561.476 164.466C562.842 168.108 569.077 168.504 575.096 168.298M583.267 167.871C581.01 167.946 578.08 168.196 575.096 168.298M590.077 177.405C587.353 178.358 583.948 178.393 581.906 178.358M575.096 168.298C564.881 169.914 566.243 178.086 581.906 178.358M581.906 178.358C572.372 180.129 575.096 186.939 583.267 188.364M588.715 188.301C586.575 188.678 584.76 188.66 583.267 188.364M583.267 188.364C578.242 191.663 579.627 196.836 586.672 197.464M592.12 197.153C590.037 197.521 588.218 197.602 586.672 197.464M586.672 197.464C602.335 231.202 639.108 244.822 665.666 218.945" stroke="black" stroke-width="2.72393" stroke-linecap="round"/>
<circle cx="575.466" cy="127.693" r="3.40491" fill="black"/>
<circle cx="604.068" cy="122.245" r="3.40491" fill="black"/>
<path d="M593.853 291.81V385.785H536.65L542.895 380.321C545.851 377.735 547.546 373.999 547.546 370.071V275.466" stroke="black" stroke-width="2.72393" stroke-linecap="round" stroke-linejoin="round"/>
<path d="M599.301 291.81V385.785H656.503L650.259 380.321C647.303 377.735 645.607 373.999 645.607 370.071V275.466" stroke="black" stroke-width="2.72393" stroke-linecap="round" stroke-linejoin="round"/>
<path d="M530.329 132.871C528.811 141.073 528.182 149.395 527.023 157.654" stroke="white" stroke-width="2.72393" stroke-miterlimit="1.5" stroke-linecap="round" stroke-linejoin="round"/>
<path d="M551.833 124.288C544.934 135.808 539.182 148.27 534.102 160.694" stroke="white" stroke-width="2.72393" stroke-miterlimit="1.5" stroke-linecap="round" stroke-linejoin="round"/>
<path d="M564.21 144.278C556.288 148.958 547.236 158.877 540.421 165.504" stroke="white" stroke-width="2.72393" stroke-miterlimit="1.5" stroke-linecap="round" stroke-linejoin="round"/>
<rect opacity="0.7" x="487.62" y="171.38" width="50.3926" height="93.9755" rx="13.6196" transform="rotate(-15 487.62 171.38)" fill="#2FDBBC"/>
<rect opacity="0.7" x="494.292" y="175.232" width="14.1886" height="21.0342" rx="7.09432" transform="rotate(-15 494.292 175.232)" fill="#2FDBBC"/>
<path d="M529.369 202.961C527.874 196.283 501.239 195.713 493.068 209.048C484.896 222.383 489.191 242.966 502.811 247.177C516.43 251.388 532.774 246.475 533.455 240.159C534 235.106 522.35 235.718 516.221 235.718C523.031 235.016 534.607 235.246 533.455 229.631C532.302 224.017 519.154 225.654 513.025 226.122C520.289 224.952 534.607 224.488 533.455 217.7C532.302 210.912 518.491 213.493 511.454 214.663C519.172 212.557 531.203 211.153 529.369 202.961Z" fill="#BE7FEF" stroke="black" stroke-width="2.72393" stroke-linecap="round" stroke-linejoin="round"/>
</svg>
