<svg width="343" height="362" viewBox="0 0 343 362" fill="none" xmlns="http://www.w3.org/2000/svg">
<rect width="343" height="362" rx="20" fill="#F5F5F5"/>
<g clip-path="url(#clip0_1_8931)">
<path opacity="0.7" d="M168.317 418.981C164.797 376.741 107.01 354.945 55.5287 361.4C5.57214 367.663 -10.0585 400.587 9.011 405.851C21.357 409.259 41.6779 386.93 37.5313 354.945C33.3847 322.96 -15.6563 319.851 -30.0849 334.406C-44.5135 348.962 -13.7586 371.461 -3.5 351.247C7.69803 329.182 0.735017 276.555 -34.8905 279.333C-39.7944 285.496 -44.5709 299.027 -24.4457 303.852C0.710872 309.883 40.651 261.073 30.9674 218.703C21.2838 176.332 -34.8905 196.929 -20.5779 238.586" stroke="#A64CED" stroke-width="38.2873"/>
<rect opacity="0.7" x="20" y="235.477" width="114.624" height="229.974" rx="21.7641" transform="rotate(-31.8443 20 235.477)" fill="black"/>
<g clip-path="url(#clip1_1_8931)">
<rect x="24.995" y="236.645" width="107.369" height="222.719" rx="18.1367" transform="rotate(-31.8443 24.995 236.645)" fill="white"/>
<g clip-path="url(#clip2_1_8931)">
<rect x="57.186" y="274.724" width="92.86" height="76.8997" rx="14.5094" transform="rotate(-31.8443 57.186 274.724)" fill="#F9F9F9"/>
<path opacity="0.7" d="M91.4209 324.343L103.746 316.688" stroke="#2FDBBC" stroke-width="87.0563" stroke-linecap="round"/>
<circle cx="87.0097" cy="308.562" r="1.81367" transform="rotate(-7.31235 87.0097 308.562)" fill="black"/>
<circle cx="101.751" cy="303.744" r="1.81367" transform="rotate(-7.31235 101.751 303.744)" fill="black"/>
<path d="M99.8357 321.759C101.876 322.049 105.352 319.961 101.823 317.029C107.061 313.775 100.11 310.833 97.3424 314.202" stroke="black" stroke-width="1.45094" stroke-linecap="round" stroke-linejoin="round"/>
<path d="M140.048 306.666C142.327 305.689 143.731 304.415 144.347 303.231M137.394 301.039C143.092 298.323 145.743 300.548 144.347 303.231M128.258 323.481C139.967 331.358 134.153 308.414 132.674 303.425C131.195 298.436 128.053 289.5 132.269 288.744C135.642 288.139 136.029 293.55 136.318 297.411C136.029 293.55 136.031 287.123 138.753 287.316C142.784 287.601 141.828 293.807 141.078 296.825M139.124 298.553C140.73 296.761 145.002 293.752 147.421 296.587C148.751 298.145 148.259 299.699 147.233 300.946M144.347 303.231C145.195 302.785 146.393 301.969 147.233 300.946M147.233 300.946C151.026 308.748 153.773 321.345 151.255 329.492C148.736 337.639 141.458 341.935 139.296 342.411" stroke="black" stroke-width="1.45094" stroke-linecap="round" stroke-linejoin="round"/>
<circle cx="131.406" cy="270.472" r="3.62734" transform="rotate(-31.8443 131.406 270.472)" stroke="black" stroke-width="1.45094"/>
<circle cx="149.914" cy="252.145" r="3.62734" transform="rotate(-31.8443 149.914 252.145)" stroke="black" stroke-width="1.45094"/>
<path d="M134.222 267.443L146.907 254.867M129.301 267.083L120.815 249.295" stroke="black" stroke-width="1.45094" stroke-linecap="round" stroke-linejoin="round"/>
<path d="M115.162 249.817L126.511 247.465" stroke="black" stroke-width="1.45094" stroke-linecap="round" stroke-linejoin="round"/>
</g>
<g clip-path="url(#clip3_1_8931)">
<rect x="46.0858" y="256.852" width="17.4113" height="17.4113" rx="8.70563" transform="rotate(-31.8443 46.0858 256.852)" fill="#DAFAF4"/>
<rect opacity="0.7" x="50.679" y="264.247" width="17.4113" height="13.0584" rx="6.52922" transform="rotate(-31.8443 50.679 264.247)" fill="#2FDBBC"/>
<circle cx="59.0216" cy="264.617" r="0.362735" transform="rotate(-31.8443 59.0216 264.617)" fill="black"/>
<circle cx="62.103" cy="262.703" r="0.362735" transform="rotate(-31.8443 62.103 262.703)" fill="black"/>
</g>
<path d="M70.9787 254.663L70.6021 254.057L72.1551 253.092C72.4509 252.908 72.6291 252.678 72.6895 252.401C72.7469 252.12 72.699 251.856 72.5459 251.609C72.4418 251.442 72.3114 251.314 72.1548 251.227C71.9951 251.135 71.8193 251.094 71.6273 251.104C71.4403 251.111 71.2531 251.172 71.0657 251.289L69.4905 252.267L69.1139 251.66L70.5856 250.746C70.8321 250.593 70.987 250.408 71.0504 250.191C71.1156 249.966 71.0717 249.731 70.9186 249.484C70.7654 249.238 70.5727 249.098 70.3402 249.064C70.1047 249.026 69.8612 249.085 69.6098 249.241L68.1677 250.137L67.7911 249.531L69.2479 248.626C69.5832 248.418 69.9 248.306 70.1984 248.292C70.4987 248.269 70.7668 248.321 71.0027 248.448C71.2435 248.572 71.4374 248.752 71.5844 248.989C71.7558 249.265 71.8295 249.554 71.8052 249.856C71.7859 250.155 71.6676 250.454 71.4502 250.753L71.3716 250.494C71.7754 250.407 72.1435 250.428 72.476 250.556C72.8103 250.676 73.0785 250.899 73.2806 251.225C73.4491 251.496 73.5341 251.781 73.5357 252.081C73.5373 252.38 73.4537 252.675 73.285 252.964C73.1181 253.245 72.8547 253.498 72.4948 253.721L70.9787 254.663ZM70.5128 254.952L67.3252 249.82L68.0203 249.388L71.208 254.521L70.5128 254.952ZM76.4606 251.361C76.1746 251.538 75.876 251.635 75.5646 251.651C75.2552 251.658 74.9644 251.586 74.6923 251.434C74.4202 251.282 74.1892 251.053 73.9993 250.748L72.7316 248.706L73.3972 248.293L74.6465 250.305C74.766 250.497 74.9021 250.645 75.055 250.748C75.2098 250.843 75.3742 250.888 75.5483 250.882C75.7225 250.876 75.8958 250.82 76.0684 250.713C76.3297 250.55 76.4837 250.342 76.5306 250.087C76.5744 249.828 76.5059 249.553 76.3253 249.262L75.0759 247.25L75.7415 246.837L77.0092 248.878C77.1991 249.184 77.3019 249.492 77.3176 249.804C77.3333 250.115 77.2692 250.408 77.125 250.682C76.9828 250.948 76.7613 251.174 76.4606 251.361ZM80.7101 248.721C80.4439 248.887 80.1686 248.983 79.8843 249.009C79.6019 249.027 79.3353 248.977 79.0847 248.86C78.834 248.742 78.6232 248.562 78.4522 248.32L77.7954 247.263C77.6509 246.997 77.5831 246.728 77.5919 246.456C77.6025 246.176 77.6801 245.916 77.8248 245.676C77.9713 245.428 78.1752 245.223 78.4365 245.061C78.7569 244.862 79.0959 244.764 79.4533 244.767C79.8156 244.768 80.1565 244.86 80.4759 245.044C80.7953 245.229 81.0621 245.493 81.2765 245.838C81.4908 246.183 81.6098 246.54 81.6334 246.908C81.6569 247.276 81.5886 247.622 81.4284 247.947C81.27 248.264 81.0306 248.522 80.7101 248.721ZM80.2087 248.162C80.4306 248.024 80.5932 247.851 80.6965 247.643C80.7998 247.436 80.8457 247.213 80.834 246.974C80.8194 246.73 80.7385 246.49 80.5915 246.253C80.4476 246.022 80.2697 245.845 80.0578 245.724C79.8459 245.603 79.6255 245.545 79.3966 245.551C79.1647 245.551 78.9403 245.619 78.7233 245.754C78.5015 245.891 78.3389 246.064 78.2356 246.272C78.1292 246.474 78.0858 246.696 78.1054 246.937C78.1251 247.177 78.2084 247.416 78.3553 247.653C78.4993 247.884 78.6722 248.064 78.8743 248.191C79.0782 248.31 79.2961 248.37 79.5281 248.369C79.7649 248.366 79.9918 248.296 80.2087 248.162ZM78.8153 249.796L75.5358 244.515L76.2014 244.102L77.832 246.727L78.2345 247.656L78.893 248.436L79.4809 249.382L78.8153 249.796ZM83.127 247.118L80.9453 243.605L81.6108 243.192L83.7926 246.704L83.127 247.118ZM80.8417 242.696C80.7184 242.772 80.5929 242.796 80.465 242.766C80.3341 242.731 80.2303 242.652 80.1538 242.529C80.0803 242.41 80.0585 242.287 80.0884 242.159C80.1152 242.026 80.1902 241.922 80.3135 241.845C80.4367 241.769 80.5638 241.748 80.6948 241.783C80.8226 241.813 80.9233 241.887 80.9968 242.005C81.0734 242.128 81.0982 242.256 81.0714 242.389C81.0415 242.517 80.9649 242.619 80.8417 242.696Z" fill="#B9B9B9"/>
<path d="M41.1976 244.978L37.9824 239.801L38.8328 239.273L42.048 244.449L41.1976 244.978ZM40.4039 242.396L39.9216 241.62L42.5543 239.984L43.0366 240.761L40.4039 242.396ZM39.0489 240.214L38.5666 239.438L41.325 237.725L41.8073 238.501L39.0489 240.214ZM46.8333 241.58C46.4783 241.8 46.1088 241.92 45.7249 241.94C45.3428 241.952 44.9807 241.87 44.6385 241.693C44.3013 241.513 44.024 241.248 43.8066 240.898C43.5892 240.548 43.4761 240.184 43.4673 239.807C43.4554 239.425 43.537 239.067 43.7121 238.732C43.892 238.395 44.1521 238.121 44.4923 237.91C44.8226 237.704 45.161 237.6 45.5073 237.597C45.8586 237.59 46.1884 237.676 46.4968 237.853C46.81 238.028 47.0723 238.285 47.2836 238.625C47.3203 238.684 47.3537 238.749 47.3836 238.819C47.4155 238.882 47.4469 238.954 47.4781 239.037L44.5643 240.847L44.1509 240.182L46.6432 238.634L46.5053 239.088C46.3607 238.877 46.2055 238.721 46.0397 238.619C45.8739 238.517 45.6974 238.469 45.5104 238.476C45.3283 238.48 45.1386 238.543 44.9414 238.666C44.7344 238.794 44.582 238.95 44.4842 239.134C44.3865 239.318 44.3463 239.517 44.3635 239.732C44.3777 239.942 44.4537 240.157 44.5915 240.379C44.7293 240.601 44.8946 240.768 45.0875 240.881C45.2803 240.993 45.4872 241.046 45.7081 241.039C45.9259 241.026 46.1408 240.954 46.3528 240.823C46.5352 240.709 46.6829 240.573 46.7959 240.414C46.9139 240.252 46.9888 240.076 47.0208 239.885L47.8645 240.089C47.8175 240.398 47.7029 240.681 47.5207 240.938C47.3385 241.194 47.1094 241.408 46.8333 241.58ZM50.7837 239.126C50.4287 239.347 50.0593 239.467 49.6753 239.487C49.2932 239.498 48.9311 239.416 48.589 239.239C48.2517 239.059 47.9744 238.794 47.757 238.444C47.5396 238.094 47.4265 237.73 47.4177 237.353C47.4059 236.971 47.4874 236.613 47.6625 236.279C47.8425 235.942 48.1025 235.667 48.4427 235.456C48.773 235.251 49.1114 235.147 49.4578 235.143C49.8091 235.137 50.1389 235.222 50.4472 235.4C50.7605 235.574 51.0227 235.831 51.234 236.172C51.2708 236.231 51.3041 236.296 51.3341 236.366C51.3659 236.428 51.3974 236.501 51.4285 236.584L48.5147 238.394L48.1014 237.728L50.5936 236.18L50.4557 236.635C50.3111 236.424 50.1559 236.267 49.9901 236.165C49.8243 236.063 49.6479 236.016 49.4608 236.023C49.2787 236.027 49.0891 236.09 48.8918 236.212C48.6848 236.341 48.5324 236.497 48.4347 236.681C48.3369 236.864 48.2967 237.063 48.3139 237.278C48.3281 237.488 48.4041 237.704 48.5419 237.926C48.6797 238.148 48.845 238.315 49.0379 238.427C49.2307 238.54 49.4376 238.592 49.6585 238.585C49.8763 238.573 50.0912 238.501 50.3032 238.369C50.4856 238.256 50.6333 238.12 50.7464 237.961C50.8643 237.798 50.9393 237.622 50.9712 237.431L51.815 237.635C51.768 237.944 51.6533 238.227 51.4711 238.484C51.2889 238.741 51.0598 238.955 50.7837 239.126ZM54.5714 236.774C54.251 236.973 53.9095 237.072 53.5472 237.072C53.1898 237.068 52.8489 236.976 52.5246 236.795C52.2021 236.605 51.9337 236.338 51.7194 235.993C51.502 235.643 51.3815 235.284 51.3579 234.916C51.3362 234.54 51.403 234.191 51.5583 233.869C51.7155 233.539 51.9544 233.275 52.2748 233.076C52.546 232.908 52.8218 232.818 53.1024 232.808C53.3848 232.79 53.6504 232.843 53.8992 232.969C54.148 233.094 54.3521 233.285 54.5113 233.542L55.1452 234.562C55.3044 234.819 55.3851 235.086 55.3874 235.365C55.3947 235.641 55.329 235.903 55.1905 236.153C55.0489 236.398 54.8426 236.605 54.5714 236.774ZM54.2268 235.922C54.429 235.796 54.5764 235.643 54.6692 235.463C54.7639 235.274 54.8026 235.072 54.7854 234.858C54.7681 234.643 54.6937 234.429 54.562 234.217C54.4303 234.005 54.2721 233.844 54.0872 233.733C53.9023 233.623 53.7059 233.571 53.498 233.577C53.2919 233.575 53.0878 233.637 52.8856 233.762C52.6884 233.885 52.5425 234.04 52.4478 234.229C52.355 234.41 52.3148 234.609 52.3271 234.827C52.3443 235.041 52.4188 235.255 52.5505 235.467C52.6821 235.679 52.8404 235.84 53.0253 235.951C53.2151 236.058 53.413 236.113 53.6191 236.115C53.827 236.109 54.0296 236.044 54.2268 235.922ZM56.4261 235.519L55.6126 236.024L55.0201 235.07L54.6232 234.118L53.9499 233.347L52.3055 230.7L53.119 230.195L56.4261 235.519Z" fill="#E4E4E4"/>
<g clip-path="url(#clip4_1_8931)">
<rect x="129.911" y="391.816" width="92.86" height="76.8997" rx="14.5094" transform="rotate(-31.8443 129.911 391.816)" fill="#F9F9F9"/>
<path opacity="0.7" d="M243.424 361.452L203.983 385.949" stroke="#FFAA4C" stroke-width="69.8814" stroke-linecap="round"/>
<circle cx="197.878" cy="369.245" r="5.07828" transform="rotate(-31.8443 197.878 369.245)" stroke="black" stroke-width="1.45094"/>
</g>
<path d="M143.704 371.755L143.328 371.149L144.881 370.184C145.176 370.001 145.355 369.77 145.415 369.494C145.472 369.212 145.425 368.948 145.271 368.702C145.167 368.534 145.037 368.407 144.88 368.319C144.721 368.227 144.545 368.186 144.353 368.196C144.166 368.203 143.979 368.265 143.791 368.381L142.216 369.359L141.839 368.753L143.311 367.839C143.558 367.686 143.712 367.501 143.776 367.284C143.841 367.059 143.797 366.823 143.644 366.576C143.491 366.33 143.298 366.19 143.066 366.157C142.83 366.119 142.587 366.178 142.335 366.334L140.893 367.229L140.517 366.623L141.973 365.718C142.309 365.51 142.625 365.399 142.924 365.384C143.224 365.361 143.492 365.414 143.728 365.54C143.969 365.664 144.163 365.844 144.31 366.081C144.481 366.357 144.555 366.646 144.531 366.948C144.511 367.247 144.393 367.546 144.176 367.845L144.097 367.586C144.501 367.499 144.869 367.52 145.201 367.648C145.536 367.769 145.804 367.992 146.006 368.317C146.175 368.588 146.26 368.874 146.261 369.173C146.263 369.473 146.179 369.767 146.01 370.056C145.844 370.338 145.58 370.59 145.22 370.814L143.704 371.755ZM143.238 372.045L140.051 366.912L140.746 366.481L143.933 371.613L143.238 372.045ZM149.186 368.453C148.9 368.631 148.601 368.727 148.29 368.743C147.981 368.751 147.69 368.679 147.418 368.527C147.146 368.374 146.915 368.146 146.725 367.84L145.457 365.799L146.123 365.385L147.372 367.397C147.491 367.589 147.628 367.737 147.78 367.84C147.935 367.935 148.1 367.98 148.274 367.974C148.448 367.969 148.621 367.912 148.794 367.805C149.055 367.643 149.209 367.434 149.256 367.18C149.3 366.92 149.231 366.645 149.051 366.354L147.801 364.343L148.467 363.929L149.735 365.97C149.925 366.276 150.027 366.585 150.043 366.896C150.059 367.207 149.995 367.5 149.851 367.774C149.708 368.04 149.487 368.266 149.186 368.453ZM153.436 365.814C153.169 365.979 152.894 366.075 152.61 366.101C152.327 366.119 152.061 366.07 151.81 365.952C151.559 365.835 151.349 365.655 151.178 365.412L150.521 364.355C150.376 364.089 150.309 363.821 150.317 363.549C150.328 363.269 150.406 363.009 150.55 362.769C150.697 362.521 150.901 362.315 151.162 362.153C151.482 361.954 151.821 361.856 152.179 361.86C152.541 361.86 152.882 361.952 153.201 362.137C153.521 362.321 153.788 362.586 154.002 362.931C154.216 363.276 154.335 363.632 154.359 364C154.382 364.368 154.314 364.715 154.154 365.04C153.995 365.357 153.756 365.615 153.436 365.814ZM152.934 365.254C153.156 365.116 153.319 364.943 153.422 364.736C153.525 364.528 153.571 364.305 153.56 364.066C153.545 363.823 153.464 363.582 153.317 363.346C153.173 363.114 152.995 362.938 152.783 362.816C152.571 362.695 152.351 362.637 152.122 362.643C151.89 362.644 151.666 362.711 151.449 362.846C151.227 362.984 151.064 363.156 150.961 363.364C150.855 363.567 150.811 363.788 150.831 364.029C150.851 364.27 150.934 364.508 151.081 364.745C151.225 364.977 151.398 365.156 151.6 365.283C151.804 365.403 152.022 365.462 152.254 365.462C152.49 365.458 152.717 365.389 152.934 365.254ZM151.541 366.888L148.261 361.608L148.927 361.194L150.557 363.82L150.96 364.748L151.618 365.528L152.206 366.475L151.541 366.888ZM157.304 363.411C157.018 363.589 156.719 363.686 156.408 363.701C156.098 363.709 155.807 363.637 155.535 363.485C155.263 363.333 155.032 363.104 154.842 362.798L153.575 360.757L154.24 360.344L155.49 362.355C155.609 362.547 155.745 362.695 155.898 362.798C156.053 362.893 156.217 362.938 156.391 362.933C156.565 362.927 156.739 362.871 156.911 362.763C157.173 362.601 157.327 362.393 157.374 362.138C157.417 361.879 157.349 361.603 157.168 361.312L155.919 359.301L156.584 358.888L157.852 360.929C158.042 361.234 158.145 361.543 158.161 361.854C158.176 362.166 158.112 362.458 157.968 362.732C157.826 362.998 157.604 363.225 157.304 363.411Z" fill="#B9B9B9"/>
<rect opacity="0.7" x="63.2499" y="223.987" width="29.0188" height="7.25469" rx="3.62735" transform="rotate(-31.8443 63.2499 223.987)" fill="black"/>
<path d="M105.028 350.399L101.84 345.267L102.535 344.835L105.723 349.967L105.028 350.399ZM110.249 347.259C109.983 347.424 109.708 347.52 109.423 347.546C109.141 347.564 108.874 347.515 108.624 347.397C108.373 347.279 108.162 347.099 107.991 346.857L107.335 345.8C107.19 345.534 107.122 345.265 107.131 344.994C107.142 344.714 107.219 344.454 107.364 344.213C107.51 343.965 107.714 343.76 107.976 343.598C108.296 343.399 108.635 343.301 108.992 343.305C109.355 343.305 109.696 343.397 110.015 343.581C110.334 343.766 110.601 344.03 110.816 344.375C111.03 344.721 111.149 345.077 111.172 345.445C111.196 345.813 111.128 346.159 110.967 346.484C110.809 346.801 110.57 347.059 110.249 347.259ZM109.748 346.699C109.97 346.561 110.132 346.388 110.236 346.181C110.339 345.973 110.385 345.75 110.373 345.511C110.358 345.267 110.278 345.027 110.131 344.791C109.987 344.559 109.809 344.382 109.597 344.261C109.385 344.14 109.165 344.082 108.936 344.088C108.704 344.088 108.479 344.156 108.262 344.291C108.041 344.429 107.878 344.601 107.775 344.809C107.668 345.012 107.625 345.233 107.645 345.474C107.664 345.714 107.747 345.953 107.894 346.19C108.038 346.421 108.211 346.601 108.413 346.728C108.617 346.848 108.835 346.907 109.067 346.906C109.304 346.903 109.531 346.834 109.748 346.699ZM108.354 348.333L105.075 343.053L105.74 342.639L107.371 345.265L107.774 346.193L108.432 346.973L109.02 347.919L108.354 348.333ZM114.309 344.737C113.964 344.951 113.603 345.063 113.226 345.071C112.849 345.08 112.493 344.997 112.159 344.822C111.822 344.642 111.546 344.38 111.332 344.034C111.12 343.694 111.012 343.338 111.006 342.966C110.997 342.589 111.081 342.233 111.256 341.899C111.431 341.565 111.691 341.29 112.036 341.076C112.376 340.865 112.735 340.755 113.112 340.746C113.491 340.729 113.847 340.808 114.182 340.983C114.516 341.158 114.789 341.416 115 341.756C115.214 342.101 115.327 342.465 115.339 342.847C115.348 343.224 115.262 343.581 115.082 343.919C114.907 344.253 114.65 344.525 114.309 344.737ZM113.91 344.093C114.132 343.956 114.297 343.781 114.405 343.571C114.513 343.36 114.562 343.135 114.55 342.896C114.535 342.653 114.456 342.415 114.312 342.183C114.171 341.957 113.994 341.787 113.78 341.673C113.571 341.557 113.35 341.503 113.116 341.512C112.884 341.512 112.657 341.582 112.435 341.719C112.214 341.857 112.049 342.031 111.94 342.242C111.829 342.448 111.779 342.67 111.791 342.909C111.802 343.148 111.879 343.38 112.019 343.607C112.163 343.839 112.341 344.015 112.553 344.137C112.762 344.253 112.985 344.309 113.222 344.305C113.459 344.302 113.688 344.231 113.91 344.093ZM118.306 342.255C118.02 342.432 117.721 342.529 117.41 342.545C117.101 342.552 116.81 342.48 116.538 342.328C116.266 342.176 116.035 341.947 115.845 341.641L114.577 339.6L115.243 339.187L116.492 341.198C116.611 341.391 116.747 341.538 116.9 341.642C117.055 341.737 117.22 341.781 117.394 341.776C117.568 341.77 117.741 341.714 117.914 341.607C118.175 341.444 118.329 341.236 118.376 340.981C118.42 340.722 118.351 340.447 118.171 340.156L116.921 338.144L117.587 337.731L118.855 339.772C119.044 340.078 119.147 340.386 119.163 340.697C119.179 341.009 119.115 341.301 118.97 341.575C118.828 341.841 118.607 342.068 118.306 342.255ZM123.078 341.33C122.718 341.554 122.356 341.686 121.992 341.728C121.633 341.766 121.295 341.717 120.977 341.579L121.135 340.876C121.392 340.97 121.648 341.002 121.903 340.974C122.161 340.95 122.426 340.854 122.697 340.685C123.057 340.462 123.281 340.189 123.369 339.868C123.464 339.549 123.413 339.23 123.214 338.909L122.672 338.037L122.298 337.172L121.693 336.461L121.119 335.537L121.785 335.124L123.879 338.496C124.087 338.831 124.191 339.173 124.189 339.523C124.192 339.869 124.098 340.201 123.906 340.519C123.718 340.833 123.442 341.104 123.078 341.33ZM122.081 339.725C121.76 339.925 121.424 340.027 121.073 340.034C120.727 340.037 120.397 339.951 120.084 339.777C119.767 339.598 119.505 339.341 119.297 339.005C119.089 338.67 118.977 338.326 118.963 337.973C118.946 337.615 119.015 337.281 119.172 336.972C119.33 336.655 119.569 336.397 119.89 336.198C120.166 336.026 120.444 335.929 120.723 335.906C121.002 335.883 121.265 335.931 121.511 336.052C121.758 336.165 121.968 336.349 122.14 336.604L122.719 337.536C122.864 337.801 122.933 338.072 122.927 338.349C122.923 338.618 122.849 338.873 122.705 339.113C122.56 339.353 122.352 339.557 122.081 339.725ZM121.824 339.014C122.04 338.879 122.201 338.715 122.306 338.52C122.415 338.322 122.462 338.112 122.447 337.889C122.428 337.662 122.349 337.434 122.208 337.208C122.067 336.981 121.898 336.813 121.7 336.703C121.504 336.586 121.296 336.531 121.075 336.538C120.851 336.541 120.628 336.611 120.406 336.748C120.184 336.886 120.02 337.057 119.914 337.259C119.804 337.457 119.754 337.673 119.762 337.907C119.773 338.132 119.847 338.356 119.985 338.578C120.122 338.8 120.292 338.968 120.493 339.082C120.698 339.194 120.916 339.247 121.145 339.241C121.375 339.228 121.602 339.152 121.824 339.014ZM127.428 336.486L126.156 334.438C125.99 334.172 125.77 334.004 125.496 333.936C125.221 333.867 124.95 333.916 124.684 334.081C124.507 334.191 124.373 334.329 124.284 334.493C124.195 334.658 124.154 334.834 124.161 335.021C124.168 335.208 124.226 335.39 124.337 335.568L123.967 335.582C123.801 335.316 123.713 335.043 123.703 334.762C123.693 334.482 123.757 334.216 123.895 333.966C124.031 333.711 124.232 333.501 124.498 333.336C124.764 333.171 125.035 333.084 125.311 333.077C125.591 333.067 125.857 333.131 126.107 333.269C126.357 333.408 126.567 333.615 126.739 333.891L128.094 336.073L127.428 336.486ZM124.943 338.03L121.664 332.749L122.329 332.336L125.609 337.616L124.943 338.03ZM129.491 335.205L126.396 330.22L127.061 329.807L130.157 334.791L129.491 335.205ZM126.821 332.836L126.444 332.229L128.84 330.741L129.217 331.348L126.821 332.836ZM133.212 332.894L131.031 329.381L131.696 328.967L133.878 332.48L133.212 332.894ZM135.586 331.419L134.268 329.297C134.106 329.035 133.897 328.881 133.643 328.835C133.39 328.78 133.143 328.827 132.901 328.977C132.739 329.078 132.615 329.203 132.529 329.352C132.444 329.501 132.4 329.661 132.398 329.833C132.396 330.005 132.448 330.178 132.555 330.35L132.199 330.387C132.034 330.121 131.946 329.854 131.937 329.586C131.933 329.316 131.998 329.063 132.133 328.829C132.265 328.59 132.456 328.393 132.708 328.237C132.954 328.084 133.21 328 133.475 327.986C133.744 327.969 133.997 328.024 134.233 328.151C134.473 328.274 134.678 328.472 134.846 328.743L136.252 331.006L135.586 331.419ZM137.96 329.945L136.642 327.822C136.48 327.561 136.271 327.407 136.017 327.36C135.764 327.305 135.519 327.351 135.283 327.498C135.12 327.599 134.994 327.726 134.903 327.877C134.818 328.026 134.774 328.187 134.772 328.359C134.77 328.531 134.822 328.703 134.929 328.876L134.469 328.977C134.316 328.697 134.243 328.421 134.252 328.149C134.263 327.869 134.338 327.61 134.477 327.373C134.614 327.131 134.806 326.934 135.052 326.781C135.309 326.621 135.572 326.533 135.841 326.516C136.111 326.499 136.366 326.552 136.606 326.676C136.852 326.797 137.061 326.995 137.232 327.271L138.633 329.527L137.96 329.945ZM140.711 328.277L136.987 325.681L137.727 325.222L140.581 327.292L140.344 327.439L139.812 323.927L140.552 323.467L141.11 328.029L140.711 328.277ZM140.601 330.344L140.318 327.579L141.11 328.029L141.34 329.885L140.601 330.344ZM144.37 326.066C144.173 326.189 143.97 326.28 143.762 326.341C143.556 326.394 143.35 326.42 143.144 326.418C142.935 326.411 142.735 326.375 142.543 326.309L142.706 325.614C142.932 325.692 143.154 325.718 143.37 325.693C143.584 325.663 143.794 325.584 144.001 325.455C144.208 325.326 144.347 325.192 144.417 325.053C144.485 324.909 144.479 324.772 144.399 324.644C144.32 324.516 144.212 324.446 144.075 324.436C143.94 324.417 143.788 324.43 143.617 324.474C143.444 324.513 143.262 324.562 143.071 324.618C142.883 324.667 142.694 324.699 142.505 324.714C142.317 324.728 142.135 324.701 141.962 324.631C141.794 324.558 141.644 324.415 141.512 324.203C141.38 323.991 141.319 323.777 141.328 323.559C141.333 323.337 141.401 323.128 141.531 322.931C141.667 322.731 141.865 322.549 142.126 322.387C142.402 322.216 142.677 322.113 142.95 322.08C143.225 322.039 143.492 322.072 143.749 322.178L143.587 322.874C143.408 322.807 143.224 322.785 143.033 322.808C142.847 322.827 142.663 322.894 142.481 323.007C142.288 323.127 142.162 323.253 142.101 323.386C142.043 323.512 142.05 323.633 142.123 323.752C142.197 323.87 142.298 323.934 142.426 323.943C142.555 323.952 142.705 323.934 142.875 323.89C143.051 323.842 143.232 323.794 143.421 323.745C143.606 323.692 143.795 323.66 143.987 323.65C144.179 323.64 144.36 323.674 144.532 323.752C144.708 323.827 144.864 323.973 144.998 324.19C145.204 324.52 145.248 324.855 145.13 325.194C145.018 325.53 144.765 325.821 144.37 326.066ZM148.037 323.789C147.687 324.006 147.322 324.123 146.943 324.14C146.561 324.152 146.203 324.07 145.869 323.895C145.534 323.72 145.259 323.458 145.041 323.108C144.827 322.763 144.713 322.403 144.699 322.029C144.69 321.652 144.773 321.3 144.946 320.974C145.121 320.64 145.378 320.367 145.719 320.156C146.044 319.954 146.376 319.85 146.714 319.845C147.058 319.837 147.379 319.92 147.68 320.096C147.985 320.268 148.24 320.52 148.445 320.85C148.476 320.899 148.507 320.955 148.539 321.017C148.568 321.075 148.598 321.145 148.629 321.228L145.663 323.07L145.319 322.515L147.929 320.894L147.819 321.26C147.672 321.023 147.506 320.85 147.321 320.739C147.133 320.623 146.935 320.569 146.727 320.575C146.516 320.576 146.302 320.644 146.085 320.779C145.858 320.92 145.689 321.093 145.578 321.299C145.467 321.505 145.419 321.725 145.436 321.961C145.452 322.197 145.536 322.435 145.686 322.677C145.839 322.923 146.023 323.11 146.238 323.236C146.45 323.357 146.679 323.413 146.926 323.403C147.169 323.388 147.41 323.307 147.646 323.16C147.843 323.038 148.002 322.892 148.122 322.721C148.246 322.548 148.325 322.356 148.358 322.144L149.058 322.314C149.013 322.616 148.899 322.895 148.717 323.151C148.539 323.405 148.313 323.617 148.037 323.789ZM150.329 322.263L147.049 316.983L147.715 316.569L150.994 321.85L150.329 322.263ZM152.471 320.932L149.963 316.895C149.801 316.633 149.717 316.371 149.71 316.109C149.701 315.841 149.76 315.589 149.887 315.353C150.019 315.114 150.218 314.912 150.484 314.747C150.686 314.621 150.883 314.547 151.073 314.524C151.264 314.501 151.462 314.518 151.668 314.575L151.498 315.275C151.391 315.245 151.288 315.238 151.188 315.253C151.084 315.262 150.976 315.302 150.862 315.373C150.65 315.504 150.523 315.668 150.482 315.865C150.445 316.059 150.494 316.264 150.629 316.481L153.136 320.519L152.471 320.932ZM149.8 318.563L149.424 317.957L152.071 316.313L152.448 316.919L149.8 318.563ZM112.253 358.963C111.933 359.162 111.593 359.264 111.233 359.268C110.871 359.268 110.528 359.177 110.203 358.996C109.884 358.812 109.617 358.547 109.403 358.202C109.189 357.857 109.07 357.5 109.046 357.132C109.027 356.761 109.096 356.415 109.251 356.093C109.411 355.768 109.654 355.504 109.979 355.302C110.246 355.137 110.518 355.047 110.795 355.031C111.074 355.008 111.339 355.055 111.59 355.173C111.838 355.286 112.049 355.466 112.223 355.713L112.879 356.77C113.021 357.031 113.089 357.3 113.083 357.576C113.082 357.85 113.011 358.11 112.869 358.355C112.73 358.592 112.524 358.795 112.253 358.963ZM111.974 358.265C112.304 358.06 112.501 357.784 112.566 357.437C112.627 357.084 112.549 356.733 112.331 356.383C112.181 356.141 112.004 355.961 111.8 355.842C111.598 355.714 111.383 355.654 111.154 355.659C110.922 355.66 110.695 355.729 110.473 355.867C110.252 356.004 110.087 356.179 109.978 356.389C109.875 356.597 109.831 356.823 109.845 357.066C109.862 357.302 109.942 357.536 110.086 357.767C110.233 358.004 110.41 358.184 110.617 358.309C110.826 358.425 111.049 358.481 111.286 358.478C111.522 358.474 111.752 358.403 111.974 358.265ZM113.376 358.163L112.788 357.217L112.381 356.281L111.727 355.508L111.194 354.651L111.867 354.233L114.049 357.745L113.376 358.163ZM117.502 355.6L116.23 353.552C116.065 353.285 115.845 353.118 115.57 353.05C115.295 352.981 115.025 353.03 114.758 353.195C114.581 353.305 114.448 353.443 114.359 353.607C114.269 353.772 114.228 353.948 114.235 354.135C114.242 354.322 114.301 354.504 114.411 354.682L114.041 354.696C113.875 354.43 113.788 354.157 113.777 353.876C113.767 353.595 113.831 353.33 113.97 353.08C114.105 352.825 114.306 352.615 114.572 352.45C114.838 352.284 115.114 352.206 115.399 352.213C115.688 352.218 115.96 352.292 116.213 352.435C116.463 352.573 116.663 352.764 116.813 353.005L118.168 355.187L117.502 355.6ZM115.018 357.143L112.836 353.631L113.501 353.217L115.683 356.73L115.018 357.143ZM122.28 352.735C121.93 352.952 121.566 353.07 121.187 353.086C120.805 353.098 120.447 353.017 120.112 352.842C119.778 352.667 119.502 352.404 119.285 352.054C119.071 351.709 118.957 351.349 118.943 350.975C118.934 350.598 119.016 350.246 119.189 349.92C119.365 349.586 119.622 349.313 119.962 349.102C120.288 348.9 120.62 348.796 120.958 348.791C121.301 348.783 121.623 348.866 121.923 349.042C122.229 349.214 122.484 349.466 122.689 349.796C122.72 349.845 122.751 349.901 122.783 349.963C122.811 350.021 122.841 350.091 122.873 350.174L119.907 352.016L119.563 351.461L122.173 349.84L122.062 350.206C121.915 349.969 121.749 349.796 121.564 349.685C121.377 349.569 121.179 349.515 120.971 349.521C120.76 349.522 120.546 349.59 120.329 349.725C120.102 349.866 119.933 350.039 119.822 350.245C119.71 350.451 119.663 350.671 119.679 350.907C119.696 351.143 119.779 351.381 119.929 351.623C120.082 351.869 120.267 352.056 120.481 352.182C120.693 352.303 120.923 352.359 121.169 352.349C121.413 352.334 121.653 352.253 121.89 352.106C122.087 351.984 122.246 351.838 122.365 351.668C122.49 351.495 122.569 351.302 122.601 351.091L123.301 351.261C123.256 351.562 123.143 351.841 122.96 352.097C122.783 352.351 122.556 352.564 122.28 352.735ZM124.572 351.209L121.293 345.929L121.958 345.515L125.238 350.796L124.572 351.209ZM127.885 349.254C127.535 349.472 127.17 349.589 126.791 349.606C126.409 349.617 126.051 349.536 125.717 349.361C125.382 349.186 125.107 348.923 124.889 348.573C124.675 348.228 124.561 347.868 124.547 347.494C124.538 347.117 124.621 346.766 124.794 346.439C124.969 346.105 125.226 345.832 125.567 345.621C125.892 345.419 126.224 345.315 126.562 345.31C126.906 345.302 127.227 345.386 127.528 345.561C127.833 345.734 128.088 345.985 128.293 346.315C128.324 346.365 128.355 346.42 128.387 346.483C128.416 346.54 128.446 346.61 128.477 346.693L125.511 348.535L125.167 347.981L127.777 346.359L127.667 346.725C127.52 346.489 127.354 346.315 127.169 346.204C126.981 346.089 126.783 346.034 126.575 346.04C126.364 346.041 126.15 346.109 125.933 346.244C125.706 346.385 125.537 346.558 125.426 346.764C125.315 346.97 125.267 347.191 125.284 347.426C125.3 347.662 125.384 347.901 125.534 348.142C125.687 348.389 125.871 348.575 126.086 348.701C126.298 348.822 126.527 348.878 126.774 348.868C127.017 348.854 127.257 348.773 127.494 348.626C127.691 348.503 127.85 348.357 127.97 348.187C128.094 348.014 128.173 347.821 128.206 347.61L128.906 347.78C128.86 348.081 128.747 348.36 128.565 348.617C128.387 348.87 128.161 349.083 127.885 349.254ZM131.827 346.806C131.482 347.02 131.119 347.133 130.736 347.145C130.359 347.154 130.004 347.07 129.669 346.895C129.337 346.712 129.065 346.451 128.854 346.111C128.64 345.765 128.526 345.406 128.512 345.032C128.503 344.655 128.588 344.301 128.766 343.972C128.946 343.635 129.208 343.359 129.554 343.145C129.825 342.976 130.108 342.872 130.404 342.832C130.697 342.786 130.987 342.808 131.274 342.896L131.106 343.615C130.918 343.554 130.725 343.541 130.528 343.575C130.332 343.601 130.141 343.672 129.953 343.788C129.731 343.926 129.566 344.1 129.458 344.311C129.347 344.517 129.297 344.739 129.309 344.978C129.32 345.216 129.398 345.452 129.542 345.683C129.686 345.915 129.862 346.089 130.071 346.205C130.28 346.322 130.503 346.378 130.74 346.374C130.976 346.371 131.206 346.3 131.428 346.162C131.615 346.046 131.765 345.908 131.878 345.749C131.993 345.582 132.067 345.399 132.101 345.201L132.813 345.373C132.767 345.662 132.657 345.931 132.485 346.182C132.318 346.429 132.098 346.637 131.827 346.806ZM134.291 345.173L131.195 340.188L131.861 339.775L134.957 344.759L134.291 345.173ZM131.621 342.804L131.244 342.197L133.64 340.709L134.017 341.315L131.621 342.804ZM136.474 343.817L134.292 340.304L134.958 339.891L137.14 343.404L136.474 343.817ZM135.895 341.399L135.575 341.445C135.296 340.996 135.177 340.574 135.219 340.179C135.261 339.785 135.476 339.466 135.866 339.224C136.043 339.114 136.224 339.047 136.406 339.022C136.586 338.992 136.782 339.011 136.994 339.077L136.838 339.799C136.715 339.766 136.598 339.76 136.488 339.781C136.378 339.801 136.264 339.848 136.145 339.922C135.899 340.075 135.746 340.279 135.686 340.535C135.626 340.791 135.696 341.079 135.895 341.399ZM139.45 341.969L137.268 338.456L137.934 338.043L140.115 341.555L139.45 341.969ZM137.164 337.547C137.041 337.623 136.916 337.647 136.788 337.617C136.657 337.582 136.553 337.503 136.476 337.38C136.403 337.261 136.381 337.138 136.411 337.01C136.438 336.877 136.513 336.773 136.636 336.696C136.759 336.62 136.887 336.599 137.017 336.634C137.145 336.664 137.246 336.738 137.32 336.856C137.396 336.979 137.421 337.107 137.394 337.24C137.364 337.368 137.288 337.47 137.164 337.547ZM142.747 340.023C142.402 340.238 142.038 340.351 141.656 340.363C141.279 340.371 140.923 340.288 140.589 340.113C140.257 339.93 139.985 339.669 139.774 339.328C139.559 338.983 139.445 338.624 139.432 338.25C139.423 337.873 139.508 337.519 139.686 337.19C139.866 336.853 140.128 336.577 140.473 336.363C140.744 336.194 141.028 336.09 141.324 336.049C141.617 336.004 141.907 336.026 142.194 336.114L142.026 336.833C141.838 336.772 141.645 336.759 141.447 336.793C141.252 336.819 141.06 336.89 140.873 337.006C140.651 337.144 140.486 337.318 140.378 337.529C140.266 337.735 140.217 337.957 140.228 338.196C140.24 338.434 140.318 338.67 140.461 338.901C140.605 339.133 140.782 339.307 140.991 339.423C141.199 339.539 141.422 339.596 141.659 339.592C141.896 339.588 142.125 339.518 142.347 339.38C142.535 339.264 142.685 339.126 142.798 338.967C142.913 338.8 142.987 338.617 143.021 338.418L143.733 338.591C143.686 338.88 143.577 339.149 143.405 339.4C143.237 339.647 143.018 339.855 142.747 340.023ZM147.415 337.124C147.218 337.246 147.015 337.338 146.807 337.399C146.601 337.452 146.395 337.477 146.189 337.476C145.98 337.469 145.78 337.433 145.588 337.367L145.751 336.672C145.977 336.75 146.198 336.776 146.415 336.751C146.629 336.721 146.839 336.641 147.046 336.513C147.253 336.384 147.392 336.25 147.462 336.111C147.53 335.966 147.524 335.83 147.444 335.702C147.365 335.574 147.256 335.504 147.12 335.493C146.985 335.475 146.833 335.487 146.662 335.532C146.489 335.571 146.307 335.619 146.116 335.676C145.928 335.725 145.739 335.756 145.55 335.771C145.362 335.786 145.18 335.759 145.007 335.689C144.839 335.616 144.689 335.473 144.557 335.261C144.425 335.049 144.364 334.834 144.372 334.617C144.378 334.395 144.446 334.186 144.576 333.988C144.712 333.788 144.91 333.607 145.171 333.445C145.447 333.273 145.722 333.171 145.995 333.138C146.27 333.097 146.537 333.13 146.794 333.236L146.632 333.932C146.453 333.865 146.269 333.843 146.078 333.865C145.892 333.885 145.708 333.952 145.526 334.065C145.333 334.184 145.207 334.311 145.146 334.444C145.087 334.569 145.095 334.691 145.168 334.81C145.242 334.928 145.343 334.992 145.471 335.001C145.6 335.01 145.749 334.992 145.92 334.947C146.095 334.9 146.277 334.852 146.466 334.803C146.651 334.749 146.84 334.718 147.032 334.708C147.224 334.698 147.405 334.732 147.577 334.81C147.753 334.885 147.909 335.031 148.043 335.248C148.249 335.578 148.293 335.913 148.175 336.252C148.063 336.588 147.81 336.879 147.415 337.124ZM151.059 334.861C150.714 335.075 150.351 335.188 149.969 335.2C149.591 335.209 149.236 335.125 148.902 334.95C148.569 334.767 148.298 334.506 148.086 334.166C147.872 333.82 147.758 333.461 147.744 333.087C147.735 332.71 147.82 332.356 147.998 332.027C148.178 331.69 148.441 331.414 148.786 331.2C149.057 331.031 149.34 330.927 149.637 330.887C149.929 330.841 150.219 330.863 150.507 330.951L150.338 331.67C150.15 331.609 149.957 331.596 149.76 331.63C149.564 331.656 149.373 331.727 149.185 331.843C148.963 331.981 148.798 332.155 148.69 332.366C148.579 332.572 148.529 332.794 148.541 333.033C148.552 333.271 148.63 333.507 148.774 333.738C148.918 333.97 149.094 334.144 149.303 334.26C149.512 334.377 149.735 334.433 149.972 334.429C150.209 334.426 150.438 334.355 150.66 334.217C150.847 334.101 150.997 333.963 151.11 333.804C151.225 333.637 151.3 333.454 151.333 333.256L152.045 333.428C151.999 333.717 151.89 333.986 151.717 334.237C151.55 334.484 151.331 334.692 151.059 334.861ZM154.605 332.658C154.26 332.872 153.899 332.984 153.522 332.993C153.145 333.002 152.789 332.918 152.455 332.743C152.118 332.563 151.842 332.301 151.628 331.956C151.416 331.616 151.308 331.259 151.302 330.887C151.293 330.51 151.376 330.154 151.551 329.82C151.727 329.486 151.987 329.212 152.332 328.997C152.672 328.786 153.031 328.676 153.408 328.667C153.787 328.651 154.143 328.73 154.477 328.905C154.812 329.08 155.084 329.337 155.296 329.678C155.51 330.023 155.623 330.386 155.635 330.768C155.644 331.145 155.558 331.503 155.378 331.84C155.203 332.174 154.946 332.447 154.605 332.658ZM154.206 332.015C154.428 331.877 154.593 331.703 154.701 331.492C154.809 331.281 154.857 331.057 154.846 330.818C154.831 330.574 154.752 330.336 154.608 330.105C154.467 329.878 154.29 329.708 154.076 329.595C153.867 329.479 153.646 329.425 153.412 329.433C153.18 329.434 152.953 329.503 152.731 329.641C152.509 329.779 152.344 329.953 152.236 330.164C152.125 330.369 152.075 330.592 152.087 330.83C152.098 331.069 152.175 331.302 152.315 331.529C152.459 331.76 152.637 331.937 152.849 332.058C153.058 332.174 153.281 332.231 153.518 332.227C153.755 332.223 153.984 332.153 154.206 332.015ZM158.794 330.056C158.449 330.271 158.088 330.382 157.711 330.391C157.334 330.4 156.978 330.317 156.644 330.142C156.306 329.962 156.031 329.699 155.816 329.354C155.605 329.014 155.497 328.658 155.491 328.286C155.482 327.908 155.565 327.553 155.74 327.219C155.915 326.884 156.175 326.61 156.52 326.396C156.861 326.185 157.219 326.075 157.596 326.066C157.975 326.049 158.332 326.128 158.666 326.303C159 326.478 159.273 326.736 159.484 327.076C159.699 327.421 159.812 327.785 159.824 328.167C159.832 328.544 159.747 328.901 159.567 329.238C159.392 329.572 159.134 329.845 158.794 330.056ZM158.394 329.413C158.616 329.275 158.781 329.101 158.89 328.89C158.998 328.68 159.046 328.455 159.035 328.216C159.02 327.973 158.941 327.735 158.797 327.503C158.656 327.276 158.478 327.106 158.265 326.993C158.056 326.877 157.835 326.823 157.601 326.832C157.369 326.832 157.142 326.901 156.92 327.039C156.698 327.177 156.533 327.351 156.425 327.562C156.314 327.768 156.264 327.99 156.275 328.229C156.287 328.467 156.363 328.7 156.504 328.927C156.648 329.159 156.826 329.335 157.038 329.456C157.247 329.573 157.47 329.629 157.706 329.625C157.943 329.622 158.173 329.551 158.394 329.413ZM161.764 328.11L158.668 323.125L159.333 322.712L162.429 327.696L161.764 328.11ZM159.093 325.741L158.717 325.134L161.113 323.646L161.489 324.252L159.093 325.741ZM165.511 325.885C165.161 326.102 164.796 326.219 164.417 326.236C164.035 326.248 163.677 326.166 163.343 325.991C163.009 325.816 162.733 325.554 162.516 325.203C162.301 324.858 162.187 324.499 162.174 324.125C162.165 323.748 162.247 323.396 162.42 323.07C162.595 322.736 162.853 322.463 163.193 322.252C163.518 322.049 163.85 321.946 164.189 321.941C164.532 321.932 164.854 322.016 165.154 322.192C165.459 322.364 165.715 322.615 165.92 322.946C165.95 322.995 165.982 323.051 166.013 323.113C166.042 323.17 166.072 323.241 166.103 323.324L163.138 325.166L162.793 324.611L165.404 322.99L165.293 323.356C165.146 323.119 164.98 322.945 164.795 322.835C164.607 322.719 164.409 322.664 164.201 322.671C163.99 322.672 163.776 322.74 163.559 322.875C163.333 323.015 163.164 323.189 163.052 323.394C162.941 323.6 162.894 323.821 162.91 324.057C162.927 324.292 163.01 324.531 163.16 324.772C163.313 325.019 163.497 325.205 163.712 325.331C163.924 325.453 164.153 325.508 164.4 325.499C164.644 325.484 164.884 325.403 165.121 325.256C165.318 325.134 165.476 324.987 165.596 324.817C165.721 324.644 165.8 324.452 165.832 324.24L166.532 324.41C166.487 324.711 166.373 324.99 166.191 325.247C166.014 325.501 165.787 325.713 165.511 325.885ZM167.803 324.359L165.621 320.846L166.287 320.432L168.469 323.945L167.803 324.359ZM167.224 321.941L166.904 321.986C166.625 321.538 166.506 321.116 166.548 320.721C166.59 320.326 166.805 320.008 167.195 319.766C167.372 319.656 167.553 319.588 167.735 319.564C167.915 319.534 168.111 319.552 168.323 319.619L168.167 320.341C168.044 320.308 167.927 320.302 167.817 320.322C167.707 320.343 167.593 320.39 167.474 320.463C167.228 320.617 167.075 320.821 167.015 321.077C166.955 321.333 167.025 321.621 167.224 321.941Z" fill="#B9B9B9"/>
<path d="M110.47 195.513L113.532 200.443" stroke="#E4E4E4" stroke-width="1.0882" stroke-linecap="round" stroke-linejoin="round"/>
<path d="M109.536 199.509L114.466 196.447" stroke="#E4E4E4" stroke-width="1.0882" stroke-linecap="round" stroke-linejoin="round"/>
</g>
<g opacity="0.7" clip-path="url(#clip5_1_8931)">
<g clip-path="url(#clip6_1_8931)">
<path d="M201.693 217.704C201.696 218.027 201.597 218.343 201.412 218.608C201.227 218.873 200.964 219.073 200.659 219.181L194.367 221.466L192.082 227.759C191.97 228.06 191.769 228.32 191.505 228.504C191.24 228.687 190.927 228.786 190.605 228.786C190.283 228.786 189.969 228.687 189.705 228.504C189.441 228.32 189.24 228.06 189.128 227.759L186.843 221.466L180.551 219.181C180.249 219.069 179.989 218.868 179.805 218.604C179.622 218.34 179.523 218.026 179.523 217.704C179.523 217.383 179.622 217.069 179.805 216.805C179.989 216.541 180.249 216.339 180.551 216.227L186.843 213.942L189.128 207.65C189.24 207.348 189.441 207.088 189.705 206.905C189.969 206.721 190.283 206.623 190.605 206.623C190.927 206.623 191.24 206.721 191.505 206.905C191.769 207.088 191.97 207.348 192.082 207.65L194.367 213.942L200.659 216.227C200.964 216.335 201.227 216.536 201.412 216.801C201.597 217.065 201.696 217.381 201.693 217.704Z" fill="#FFAA4C"/>
</g>
</g>
<g opacity="0.7" clip-path="url(#clip7_1_8931)">
<path d="M214.519 195.08C214.521 195.287 214.458 195.49 214.339 195.659C214.22 195.829 214.051 195.957 213.856 196.027L209.823 197.491L208.358 201.525C208.286 201.718 208.157 201.885 207.988 202.003C207.819 202.121 207.617 202.184 207.411 202.184C207.205 202.184 207.004 202.121 206.834 202.003C206.665 201.885 206.536 201.718 206.464 201.525L205 197.491L200.966 196.027C200.773 195.955 200.606 195.826 200.488 195.657C200.371 195.487 200.307 195.286 200.307 195.08C200.307 194.874 200.371 194.673 200.488 194.503C200.606 194.334 200.773 194.205 200.966 194.133L205 192.669L206.464 188.635C206.536 188.442 206.665 188.275 206.834 188.157C207.004 188.04 207.205 187.976 207.411 187.976C207.617 187.976 207.819 188.04 207.988 188.157C208.157 188.275 208.286 188.442 208.358 188.635L209.823 192.669L213.856 194.133C214.051 194.203 214.22 194.331 214.339 194.501C214.458 194.67 214.521 194.873 214.519 195.08Z" fill="#FFAA4C"/>
</g>
</g>
<defs>
<clipPath id="clip0_1_8931">
<rect width="343" height="193" fill="white" transform="translate(0 169)"/>
</clipPath>
<clipPath id="clip1_1_8931">
<rect x="24.995" y="236.645" width="107.369" height="222.719" rx="18.1367" transform="rotate(-31.8443 24.995 236.645)" fill="white"/>
</clipPath>
<clipPath id="clip2_1_8931">
<rect x="57.186" y="274.724" width="92.86" height="76.8997" rx="14.5094" transform="rotate(-31.8443 57.186 274.724)" fill="white"/>
</clipPath>
<clipPath id="clip3_1_8931">
<rect x="46.0858" y="256.852" width="17.4113" height="17.4113" rx="8.70563" transform="rotate(-31.8443 46.0858 256.852)" fill="white"/>
</clipPath>
<clipPath id="clip4_1_8931">
<rect x="129.911" y="391.816" width="92.86" height="76.8997" rx="14.5094" transform="rotate(-31.8443 129.911 391.816)" fill="white"/>
</clipPath>
<clipPath id="clip5_1_8931">
<rect width="25.2098" height="25.2098" fill="white" transform="translate(178 205.099)"/>
</clipPath>
<clipPath id="clip6_1_8931">
<rect width="25.2098" height="25.2098" fill="white" transform="translate(178 205.099)"/>
</clipPath>
<clipPath id="clip7_1_8931">
<rect width="16.1601" height="16.1601" fill="white" transform="translate(199.331 187)"/>
</clipPath>
</defs>
</svg>
