<svg width="343" height="333" viewBox="0 0 343 333" fill="none" xmlns="http://www.w3.org/2000/svg">
<rect width="343" height="333" rx="20" fill="#F5F5F5"/>
<g clip-path="url(#clip0_1_8988)">
<g opacity="0.7">
<path fill-rule="evenodd" clip-rule="evenodd" d="M187.764 367.321C192.921 369.298 198.704 366.72 200.681 361.563L222.678 304.181C224.655 299.024 222.077 293.241 216.92 291.264L206.72 287.354L195.555 283.074L184.391 278.795L174.273 274.916L173.493 274.617C168.336 272.64 162.553 275.218 160.576 280.375L138.579 337.757C136.603 342.914 139.181 348.697 144.337 350.674L187.764 367.321Z" fill="#FFAA4C"/>
<path d="M206.72 287.354L216.92 291.264C222.077 293.241 224.655 299.024 222.678 304.181L200.681 361.563C198.704 366.72 192.921 369.298 187.764 367.321L144.337 350.674C139.18 348.697 136.603 342.914 138.579 337.757L160.576 280.375C162.553 275.218 168.336 272.64 173.493 274.617L174.273 274.916M206.72 287.354C208.697 280.109 210.085 264.795 199.823 261.501C189.561 258.208 185.259 271.658 184.391 278.795M206.72 287.354L195.555 283.074M184.391 278.795L195.555 283.074M184.391 278.795L174.273 274.916M195.555 283.074C199.455 273.161 204.954 252.641 195.753 249.864C186.552 247.087 177.599 265.408 174.273 274.916" stroke="#FFAA4C" stroke-width="2" stroke-linecap="round" stroke-linejoin="round"/>
</g>
</g>
<g clip-path="url(#clip1_1_8988)">
<g opacity="0.7">
<path fill-rule="evenodd" clip-rule="evenodd" d="M49.9909 352.52C45.2943 355.425 39.1313 353.974 36.2256 349.277L16.0003 316.585C13.0946 311.888 14.5465 305.725 19.2432 302.82L23.5061 300.182L30.8015 295.669L38.0969 291.155L44.7084 287.065C48.3598 284.806 53.1512 285.935 55.4102 289.586L76.8065 324.171C79.7122 328.868 78.2603 335.031 73.5636 337.936L49.9909 352.52Z" fill="#2FDBBC"/>
<path d="M23.5061 300.182L19.2432 302.82C14.5465 305.725 13.0946 311.888 16.0003 316.585L36.2256 349.277C39.1313 353.974 45.2943 355.425 49.9909 352.52L73.5636 337.936C78.2603 335.031 79.7122 328.868 76.8065 324.171L55.4102 289.586C53.1512 285.935 48.3598 284.806 44.7084 287.065V287.065M23.5061 300.182C21.1411 295.341 18.1092 284.733 24.9007 281.035C31.6923 277.338 36.528 286.242 38.0969 291.155M23.5061 300.182L30.8015 295.669M38.0969 291.155L30.8015 295.669M38.0969 291.155L44.7084 287.065M30.8015 295.669C26.7236 289.204 20.0961 275.478 26.2092 272.287C32.3224 269.096 41.0892 280.809 44.7084 287.065" stroke="#2FDBBC" stroke-width="2" stroke-linecap="round" stroke-linejoin="round"/>
</g>
</g>
<g clip-path="url(#clip2_1_8988)">
<g opacity="0.7">
<path fill-rule="evenodd" clip-rule="evenodd" d="M335.268 223.658C339.033 222.703 342.85 225.02 343.739 228.801L358.094 289.862C358.845 293.055 357.26 296.337 354.293 297.735L323.186 312.392C322 312.95 320.681 313.162 319.381 313.003L304.266 311.152C301.354 310.796 298.981 308.649 298.334 305.787L284.286 243.574C283.457 239.902 285.704 236.237 289.353 235.311L294.403 234.03L306.01 231.084L316.005 228.547L326 226.01L335.268 223.658Z" fill="#A64CED"/>
<path d="M306.01 231.084C304.533 225.262 303.512 213.128 311.25 211.165C318.988 209.201 324.308 220.243 326 226.01M306.01 231.084L316.005 228.547M306.01 231.084L294.403 234.03M326 226.01L335.268 223.658C339.033 222.703 342.85 225.02 343.739 228.801L358.094 289.862C358.845 293.055 357.26 296.337 354.293 297.735L323.186 312.392C322 312.95 320.681 313.162 319.381 313.003L304.266 311.152C301.354 310.796 298.981 308.649 298.334 305.787L284.286 243.574C283.457 239.902 285.704 236.237 289.353 235.311L294.403 234.03M326 226.01L316.005 228.547M316.005 228.547C313.248 219.534 305.562 202.041 296.88 204.167C288.198 206.293 291.611 224.961 294.403 234.03" stroke="#A64CED" stroke-width="1.38922" stroke-linecap="round" stroke-linejoin="round"/>
<path d="M320.224 305.237L316.371 291.393M304.812 249.859L312.518 277.548" stroke="white" stroke-width="1.38922" stroke-linecap="round" stroke-linejoin="round"/>
</g>
</g>
<defs>
<clipPath id="clip0_1_8988">
<rect width="93" height="86" fill="white" transform="translate(135 247)"/>
</clipPath>
<clipPath id="clip1_1_8988">
<rect width="72" height="64" fill="white" transform="translate(10 269)"/>
</clipPath>
<clipPath id="clip2_1_8988">
<rect width="61" height="116" fill="white" transform="translate(282 201)"/>
</clipPath>
</defs>
</svg>
